<svg width="83" height="83" viewBox="0 0 83 83" fill="none" xmlns="http://www.w3.org/2000/svg">
<rect x="1.5" y="1.5" width="80" height="80" rx="10" fill="#0F0F0F" fill-opacity="0.4"/>
<rect x="0.75" y="0.75" width="81.5" height="81.5" rx="10.75" stroke="white" stroke-opacity="0.3" stroke-width="1.5"/>
<path d="M55.6912 28.5763C53.0944 27.3754 50.2829 26.5037 47.3543 26.0001C47.3286 25.9993 47.3031 26.0041 47.2794 26.0141C47.2558 26.0241 47.2347 26.0392 47.2176 26.0582C46.8662 26.6974 46.4562 27.5303 46.1828 28.1695C43.0765 27.7046 39.9175 27.7046 36.8111 28.1695C36.5378 27.5109 36.1278 26.6974 35.7568 26.0582C35.7373 26.0195 35.6787 26.0001 35.6201 26.0001C32.6915 26.5037 29.8995 27.3754 27.2833 28.5763C27.2637 28.5763 27.2442 28.5957 27.2247 28.615C21.9141 36.4986 20.4497 44.1691 21.1721 51.7621C21.1721 51.8008 21.1917 51.8396 21.2307 51.8589C24.7451 54.4158 28.1228 55.9654 31.4615 56.992C31.52 57.0113 31.5786 56.992 31.5981 56.9532C32.3791 55.8879 33.082 54.7644 33.6872 53.5829C33.7263 53.5054 33.6872 53.4279 33.6091 53.4085C32.4963 52.9824 31.4419 52.4788 30.4072 51.8977C30.3291 51.8589 30.3291 51.7427 30.3876 51.6846C30.6024 51.5297 30.8172 51.3553 31.0319 51.2004C31.071 51.1616 31.1296 51.1616 31.1686 51.181C37.885 54.2221 45.1285 54.2221 51.7668 51.181C51.8058 51.1616 51.8644 51.1616 51.9035 51.2004C52.1182 51.3747 52.333 51.5297 52.5478 51.704C52.6259 51.7621 52.6259 51.8783 52.5282 51.9171C51.513 52.5175 50.4391 53.0018 49.3262 53.4279C49.2481 53.4473 49.2286 53.5441 49.2481 53.6022C49.8729 54.7838 50.5758 55.9073 51.3372 56.9726C51.3958 56.992 51.4544 57.0113 51.513 56.992C54.8712 55.9654 58.2489 54.4158 61.7632 51.8589C61.8023 51.8396 61.8218 51.8008 61.8218 51.7621C62.6809 42.9875 60.3965 35.3751 55.7693 28.615C55.7497 28.5957 55.7302 28.5763 55.6912 28.5763ZM34.7025 47.1327C32.6915 47.1327 31.0124 45.2925 31.0124 43.0263C31.0124 40.76 32.6525 38.9198 34.7025 38.9198C36.7721 38.9198 38.4121 40.7793 38.3926 43.0263C38.3926 45.2925 36.7526 47.1327 34.7025 47.1327ZM48.311 47.1327C46.3 47.1327 44.6209 45.2925 44.6209 43.0263C44.6209 40.76 46.2609 38.9198 48.311 38.9198C50.3806 38.9198 52.0206 40.7793 52.0011 43.0263C52.0011 45.2925 50.3806 47.1327 48.311 47.1327Z" fill="url(#paint0_linear_317_1090)"/>
<defs>
<linearGradient id="paint0_linear_317_1090" x1="41.5" y1="26" x2="41.5" y2="57" gradientUnits="userSpaceOnUse">
<stop stop-color="white"/>
<stop offset="1" stop-color="#A8A8A8"/>
</linearGradient>
</defs>
</svg>
