<svg width="132" height="135" viewBox="0 0 132 135" fill="none" xmlns="http://www.w3.org/2000/svg">
<g filter="url(#filter0_d_306_92)">
<g clip-path="url(#clip0_306_92)">
<mask id="path-1-outside-1_306_92" maskUnits="userSpaceOnUse" x="19" y="8" width="94" height="96" fill="black">
<rect fill="white" x="19" y="8" width="94" height="96"/>
<path d="M21 22C21 15.3726 26.3726 10 33 10H99C105.627 10 111 15.3726 111 22V88C111 94.6274 105.627 100 99 100H33C26.3726 100 21 94.6274 21 88V22Z"/>
</mask>
<g clip-path="url(#clip1_306_92)">
<path d="M21 20.7024C21 14.5776 25.9652 9.61243 32.09 9.61243H99.91C106.035 9.61243 111 14.5776 111 20.7024V88.5224C111 94.6473 106.035 99.6124 99.91 99.6124H32.09C25.9652 99.6124 21 94.6473 21 88.5224V20.7024Z" fill="black"/>
<g opacity="0.05" filter="url(#filter1_f_306_92)">
<path d="M38.1818 52.1578C38.1818 38.1499 49.5375 26.7942 63.5454 26.7942H67.6363C81.6443 26.7942 92.9999 38.1499 92.9999 52.1578V52.1578C92.9999 66.1658 81.6443 77.5215 67.6363 77.5215H63.5454C49.5374 77.5215 38.1818 66.1658 38.1818 52.1578V52.1578Z" fill="url(#paint0_linear_306_92)"/>
</g>
<g opacity="0.05" filter="url(#filter2_f_306_92)">
<path d="M31.6364 47.6579C31.6364 28.9053 46.8383 13.7034 65.5909 13.7034V13.7034C84.3435 13.7034 99.5454 28.9053 99.5454 47.6579V56.6579C99.5454 75.4105 84.3435 90.6125 65.5909 90.6125V90.6125C46.8383 90.6125 31.6364 75.4105 31.6364 56.6579V47.6579Z" fill="url(#paint1_linear_306_92)"/>
</g>
<path d="M47.5909 41.8284C47.5909 41.4215 47.7526 41.0313 48.0403 40.7436C48.328 40.4559 48.7182 40.2943 49.125 40.2943C54.5721 40.2943 59.88 38.3655 65.0796 34.4648C65.3451 34.2656 65.6681 34.158 66 34.158C66.332 34.158 66.6549 34.2656 66.9205 34.4648C72.12 38.3655 77.428 40.2943 82.875 40.2943C83.2819 40.2943 83.6721 40.4559 83.9598 40.7436C84.2475 41.0313 84.4091 41.4215 84.4091 41.8284V52.5671C84.4091 62.7964 78.3587 70.3134 66.5625 74.9607C66.2011 75.1032 65.799 75.1032 65.4375 74.9607C53.6414 70.3134 47.5909 62.7943 47.5909 52.5671V41.8284ZM50.6591 43.3175V52.5671C50.6591 61.2725 55.6766 67.6605 66 71.8802C76.3234 67.6605 81.3409 61.2725 81.3409 52.5671V43.3175C76.0698 43.0066 70.95 41.088 66 37.5902C61.05 41.088 55.9303 43.0066 50.6591 43.3175Z" fill="white"/>
</g>
<g clip-path="url(#clip2_306_92)">
<path d="M21 22.09C21 15.4129 26.4129 10 33.09 10H98.91C105.587 10 111 15.4129 111 22.09V84.91C111 91.5871 105.587 97 98.91 97H33.09C26.4129 97 21 91.5871 21 84.91V22.09Z" fill="#18181B"/>
<g opacity="0.05" filter="url(#filter3_f_306_92)">
<path d="M38.1818 52.1578C38.1818 38.1499 49.5375 26.7942 63.5454 26.7942H67.6363C81.6443 26.7942 92.9999 38.1499 92.9999 52.1578V52.1578C92.9999 66.1658 81.6443 77.5215 67.6363 77.5215H63.5454C49.5374 77.5215 38.1818 66.1658 38.1818 52.1578V52.1578Z" fill="url(#paint2_linear_306_92)"/>
</g>
<g opacity="0.05" filter="url(#filter4_f_306_92)">
<path d="M31.6364 47.6579C31.6364 28.9053 46.8383 13.7034 65.5909 13.7034V13.7034C84.3435 13.7034 99.5454 28.9053 99.5454 47.6579V56.6579C99.5454 75.4105 84.3435 90.6125 65.5909 90.6125V90.6125C46.8383 90.6125 31.6364 75.4105 31.6364 56.6579V47.6579Z" fill="url(#paint3_linear_306_92)"/>
</g>
<path d="M57.4986 67.747L70.7941 38.0879C70.9532 37.7332 71.241 37.4522 71.5994 37.3016C71.9578 37.151 72.36 37.142 72.7248 37.2766C73.0895 37.4112 73.3895 37.6792 73.5642 38.0265C73.7389 38.3738 73.7753 38.7744 73.6659 39.1475L73.5922 39.3439L60.2968 69.0029C60.1377 69.3576 59.8498 69.6387 59.4914 69.7893C59.133 69.9399 58.7308 69.9489 58.3661 69.8143C58.0014 69.6797 57.7013 69.4117 57.5266 69.0644C57.3519 68.7171 57.3156 68.3165 57.425 67.9434L57.4986 67.747ZM45.5409 52.4614L54.2341 43.7682C54.5082 43.4962 54.8747 43.3376 55.2606 43.324C55.6465 43.3104 56.0233 43.4429 56.3158 43.6949C56.6084 43.9469 56.7951 44.2999 56.8388 44.6836C56.8825 45.0672 56.7799 45.4532 56.5516 45.7645L56.4022 45.9384L48.7932 53.5454L56.4022 61.1525C56.6742 61.4266 56.8328 61.7931 56.8464 62.179C56.86 62.5649 56.7276 62.9417 56.4756 63.2343C56.2236 63.5268 55.8705 63.7136 55.4869 63.7573C55.1032 63.8009 54.7172 63.6984 54.4059 63.47L54.2341 63.3207L45.5409 54.6275C45.2811 54.3677 45.1231 54.0234 45.0957 53.657C45.0683 53.2907 45.1733 52.9266 45.3916 52.6311L45.5409 52.4593V52.4614ZM74.6886 43.7682C74.9484 43.5084 75.2927 43.3504 75.6591 43.323C76.0254 43.2956 76.3895 43.4006 76.685 43.6189L76.8568 43.7682L85.55 52.4614C85.8098 52.7211 85.9678 53.0655 85.9952 53.4318C86.0226 53.7982 85.9176 54.1622 85.6993 54.4577L85.55 54.6316L76.8568 63.3248C76.5831 63.5993 76.2156 63.7599 75.8282 63.7745C75.4408 63.7891 75.0623 63.6564 74.7687 63.4033C74.4751 63.1501 74.2883 62.7952 74.2457 62.4099C74.2032 62.0246 74.308 61.6375 74.5393 61.3264L74.6886 61.1545L82.2977 53.5454L74.6886 45.9364C74.4013 45.6487 74.24 45.2588 74.24 44.8523C74.24 44.4457 74.4013 44.0558 74.6886 43.7682Z" fill="white"/>
</g>
</g>
<path d="M19.7727 22C19.7727 14.6948 25.6948 8.77273 33 8.77273H99C106.305 8.77273 112.227 14.6948 112.227 22L109.773 22C109.773 16.0504 104.95 11.2273 99 11.2273H33C27.0504 11.2273 22.2273 16.0504 22.2273 22L19.7727 22ZM112.227 90.4545C112.227 97.7598 106.305 103.682 99 103.682H33C25.6948 103.682 19.7727 97.7598 19.7727 90.4545L22.2273 88C22.2273 92.594 27.0504 96.3182 33 96.3182H99C104.95 96.3182 109.773 92.594 109.773 88L112.227 90.4545ZM33 103.682C25.6948 103.682 19.7727 97.7598 19.7727 90.4545V22C19.7727 14.6948 25.6948 8.77273 33 8.77273L33 11.2273C27.0504 11.2273 22.2273 16.0504 22.2273 22V88C22.2273 92.594 27.0504 96.3182 33 96.3182L33 103.682ZM99 8.77273C106.305 8.77273 112.227 14.6948 112.227 22V90.4545C112.227 97.7598 106.305 103.682 99 103.682L99 96.3182C104.95 96.3182 109.773 92.594 109.773 88V22C109.773 16.0504 104.95 11.2273 99 11.2273L99 8.77273Z" fill="url(#paint4_linear_306_92)" mask="url(#path-1-outside-1_306_92)"/>
</g>
<defs>
<filter id="filter0_d_306_92" x="0.48084" y="0.935385" width="131.038" height="133.493" filterUnits="userSpaceOnUse" color-interpolation-filters="sRGB">
<feFlood flood-opacity="0" result="BackgroundImageFix"/>
<feColorMatrix in="SourceAlpha" type="matrix" values="0 0 0 0 0 0 0 0 0 0 0 0 0 0 0 0 0 0 127 0" result="hardAlpha"/>
<feMorphology radius="3.61722" operator="erode" in="SourceAlpha" result="effect1_dropShadow_306_92"/>
<feOffset dy="11.4545"/>
<feGaussianBlur stdDeviation="11.4545"/>
<feComposite in2="hardAlpha" operator="out"/>
<feColorMatrix type="matrix" values="0 0 0 0 1 0 0 0 0 1 0 0 0 0 1 0 0 0 0.1 0"/>
<feBlend mode="normal" in2="BackgroundImageFix" result="effect1_dropShadow_306_92"/>
<feBlend mode="normal" in="SourceGraphic" in2="effect1_dropShadow_306_92" result="shape"/>
</filter>
<filter id="filter1_f_306_92" x="18.5454" y="7.15783" width="94.091" height="90" filterUnits="userSpaceOnUse" color-interpolation-filters="sRGB">
<feFlood flood-opacity="0" result="BackgroundImageFix"/>
<feBlend mode="normal" in="SourceGraphic" in2="BackgroundImageFix" result="shape"/>
<feGaussianBlur stdDeviation="9.81818" result="effect1_foregroundBlur_306_92"/>
</filter>
<filter id="filter2_f_306_92" x="15.2727" y="-2.66027" width="100.636" height="109.636" filterUnits="userSpaceOnUse" color-interpolation-filters="sRGB">
<feFlood flood-opacity="0" result="BackgroundImageFix"/>
<feBlend mode="normal" in="SourceGraphic" in2="BackgroundImageFix" result="shape"/>
<feGaussianBlur stdDeviation="8.18182" result="effect1_foregroundBlur_306_92"/>
</filter>
<filter id="filter3_f_306_92" x="18.5454" y="7.15783" width="94.091" height="90" filterUnits="userSpaceOnUse" color-interpolation-filters="sRGB">
<feFlood flood-opacity="0" result="BackgroundImageFix"/>
<feBlend mode="normal" in="SourceGraphic" in2="BackgroundImageFix" result="shape"/>
<feGaussianBlur stdDeviation="9.81818" result="effect1_foregroundBlur_306_92"/>
</filter>
<filter id="filter4_f_306_92" x="15.2727" y="-2.66027" width="100.636" height="109.636" filterUnits="userSpaceOnUse" color-interpolation-filters="sRGB">
<feFlood flood-opacity="0" result="BackgroundImageFix"/>
<feBlend mode="normal" in="SourceGraphic" in2="BackgroundImageFix" result="shape"/>
<feGaussianBlur stdDeviation="8.18182" result="effect1_foregroundBlur_306_92"/>
</filter>
<linearGradient id="paint0_linear_306_92" x1="65.5909" y1="77.5215" x2="65.5909" y2="26.7942" gradientUnits="userSpaceOnUse">
<stop stop-color="#D4D4D8"/>
<stop offset="0.5" stop-color="#F4F4F5"/>
<stop offset="1" stop-color="#D4D4D8"/>
</linearGradient>
<linearGradient id="paint1_linear_306_92" x1="65.5909" y1="90.6125" x2="65.5909" y2="13.7034" gradientUnits="userSpaceOnUse">
<stop stop-color="white"/>
<stop offset="0.5" stop-color="#FAFAFA"/>
<stop offset="1" stop-color="white"/>
</linearGradient>
<linearGradient id="paint2_linear_306_92" x1="65.5909" y1="77.5215" x2="65.5909" y2="26.7942" gradientUnits="userSpaceOnUse">
<stop stop-color="#D4D4D8"/>
<stop offset="0.5" stop-color="#F4F4F5"/>
<stop offset="1" stop-color="#D4D4D8"/>
</linearGradient>
<linearGradient id="paint3_linear_306_92" x1="65.5909" y1="90.6125" x2="65.5909" y2="13.7034" gradientUnits="userSpaceOnUse">
<stop stop-color="white"/>
<stop offset="0.5" stop-color="#FAFAFA"/>
<stop offset="1" stop-color="white"/>
</linearGradient>
<linearGradient id="paint4_linear_306_92" x1="21" y1="10" x2="111" y2="100" gradientUnits="userSpaceOnUse">
<stop stop-color="white" stop-opacity="0.5"/>
<stop offset="0.5" stop-color="white" stop-opacity="0.06"/>
<stop offset="1" stop-color="white" stop-opacity="0.3"/>
</linearGradient>
<clipPath id="clip0_306_92">
<path d="M21 22C21 15.3726 26.3726 10 33 10H99C105.627 10 111 15.3726 111 22V88C111 94.6274 105.627 100 99 100H33C26.3726 100 21 94.6274 21 88V22Z" fill="white"/>
</clipPath>
<clipPath id="clip1_306_92">
<path d="M21 20.7024C21 14.5776 25.9652 9.61243 32.09 9.61243H99.91C106.035 9.61243 111 14.5776 111 20.7024V88.5224C111 94.6473 106.035 99.6124 99.91 99.6124H32.09C25.9652 99.6124 21 94.6473 21 88.5224V20.7024Z" fill="white"/>
</clipPath>
<clipPath id="clip2_306_92">
<path d="M21 22.09C21 15.4129 26.4129 10 33.09 10H98.91C105.587 10 111 15.4129 111 22.09V84.91C111 91.5871 105.587 97 98.91 97H33.09C26.4129 97 21 91.5871 21 84.91V22.09Z" fill="white"/>
</clipPath>
</defs>
</svg>
